HIERARCHY
ROOT Hips
{
	OFFSET 53.669998 14.253890 58.924004
	CHANNELS 6 Xposition Yposition Zposition Xrotation Yrotation Zrotation
	JOINT spine
	{
		OFFSET 0.000000 -0.429886 7.475594
		CHANNELS 3 Xrotation Yrotation Zrotation
		JOINT spine1
		{
			OFFSET 0.000000 -0.000002 9.923012
			CHANNELS 3 Xrotation Yrotation Zrotation
			JOINT spine2
			{
				OFFSET 0.000000 -0.000002 9.508041
				CHANNELS 3 Xrotation Yrotation Zrotation
				JOINT Neck
				{
					OFFSET 0.000000 -1.163844 24.411102
					CHANNELS 3 Xrotation Yrotation Zrotation
					JOINT Head
					{
						OFFSET 0.000000 -0.000001 7.375229
						CHANNELS 3 Xrotation Yrotation Zrotation
						End Site
						{
							OFFSET 0.000000 5.887406 17.852196
						}
					}
				}
				JOINT RightShoulder
				{
					OFFSET -4.003559 0.557467 10.267899
					CHANNELS 3 Xrotation Yrotation Zrotation
					JOINT RightArm
					{
						OFFSET 0.000000 -0.000003 13.467300
						CHANNELS 3 Xrotation Yrotation Zrotation
						JOINT RightArmRoll
						{
							OFFSET 0.000000 -0.000001 6.798576
							CHANNELS 3 Xrotation Yrotation Zrotation
							JOINT RightForeArm
							{
								OFFSET 0.000000 -0.000003 19.801804
								CHANNELS 3 Xrotation Yrotation Zrotation
								JOINT RightForeArmRoll
								{
									OFFSET 0.000000 -0.000002 7.629044
									CHANNELS 3 Xrotation Yrotation Zrotation
									JOINT RightHand
									{
										OFFSET 0.000000 -0.000002 15.309799
										CHANNELS 3 Xrotation Yrotation Zrotation
										End Site
										{
											OFFSET 0.000000 0.000000 0.100006
										}
									}
								}
							}
						}
					}
				}
				JOINT LeftShoulder
				{
					OFFSET 4.003559 0.557467 10.267899
					CHANNELS 3 Xrotation Yrotation Zrotation
					JOINT LeftArm
					{
						OFFSET 0.000000 -0.000003 13.467300
						CHANNELS 3 Xrotation Yrotation Zrotation
						JOINT LeftArmRoll
						{
							OFFSET 0.000000 -0.000001 6.798569
							CHANNELS 3 Xrotation Yrotation Zrotation
							JOINT LeftForeArm
							{
								OFFSET 0.000000 -0.000003 19.801796
								CHANNELS 3 Xrotation Yrotation Zrotation
								JOINT LeftForeArmRoll
								{
									OFFSET 0.000000 -0.000002 7.629044
									CHANNELS 3 Xrotation Yrotation Zrotation
									JOINT LeftHand
									{
										OFFSET 0.000000 -0.000002 15.309799
										CHANNELS 3 Xrotation Yrotation Zrotation
										End Site
										{
											OFFSET 0.000000 0.000000 0.100006
										}
									}
								}
							}
						}
					}
				}
			}
		}
	}
	JOINT RightUpLeg
	{
		OFFSET -6.626091 1.019270 -1.215050
		CHANNELS 3 Xrotation Yrotation Zrotation
		JOINT RightUpLegRoll
		{
			OFFSET 0.000000 -0.000003 17.951698
			CHANNELS 3 Xrotation Yrotation Zrotation
			JOINT RightLeg
			{
				OFFSET 0.000000 0.000004 -22.230396
				CHANNELS 3 Xrotation Yrotation Zrotation
				JOINT RightLegRoll
				{
					OFFSET 0.000000 -0.000004 22.303196
					CHANNELS 3 Xrotation Yrotation Zrotation
					JOINT RightFoot
					{
						OFFSET 0.000000 -0.000003 18.563599
						CHANNELS 3 Xrotation Yrotation Zrotation
						JOINT RightToeBase
						{
							OFFSET 0.000000 -0.000003 15.518303
							CHANNELS 3 Xrotation Yrotation Zrotation
							End Site
							{
								OFFSET 0.006577 0.866261 7.515388
							}
						}
					}
				}
			}
		}
	}
	JOINT LeftUpLeg
	{
		OFFSET 6.626091 1.019270 -1.215050
		CHANNELS 3 Xrotation Yrotation Zrotation
		JOINT LeftUpLegRoll
		{
			OFFSET 0.000000 -0.000003 17.951797
			CHANNELS 3 Xrotation Yrotation Zrotation
			JOINT LeftLeg
			{
				OFFSET 0.000000 -0.000004 22.230301
				CHANNELS 3 Xrotation Yrotation Zrotation
				JOINT LeftLegRoll
				{
					OFFSET 0.000000 -0.000004 22.509300
					CHANNELS 3 Xrotation Yrotation Zrotation
					JOINT LeftFoot
					{
						OFFSET 0.000000 -0.000003 18.357506
						CHANNELS 3 Xrotation Yrotation Zrotation
						JOINT LeftToeBase
						{
							OFFSET 0.000000 -0.000002 15.518295
							CHANNELS 3 Xrotation Yrotation Zrotation
							End Site
							{
								OFFSET -0.029476 0.866261 7.515381
							}
						}
					}
				}
			}
		}
	}
}
MOTION
Frames: 6
Frame Time: 0.041667
51.622894 17.252689 58.165806 -15.986030 0.229263 3.184819 3.901159 -0.388768 -0.795924 11.799884 -0.838394 -1.564539 13.444835 -0.857091 -1.554442 4.996048 12.554949 -0.570498 2.112044 -12.417919 -0.502460 -6.515486 -66.277348 -8.276236 -67.497172 -134.263187 -53.181386 -0.000003 -0.000000 -0.000003 4.212228 -6.450996 -0.951880 0.000006 0.000000 -3.005090 -5.000222 -7.998753 0.000168 -18.862585 70.398343 22.289614 -74.494606 127.717284 56.013685 0.000003 0.000001 0.000002 0.011139 0.732486 0.893620 -0.000004 0.000010 3.024472 -5.000173 8.000079 0.000009 -69.285664 173.164270 5.542153 179.999991 -0.000004 -2.121001 94.853228 5.973530 -0.582382 -0.000003 -0.000000 2.345470 65.888062 7.264585 1.439545 25.456952 -7.358538 0.000002 -68.027523 174.941553 -6.734919 -0.000004 -0.000003 -1.540721 -81.254908 -3.435158 1.408444 -0.000002 -0.000005 -1.706059 61.092975 -7.333325 -1.648194 25.456969 7.362285 -0.000009 
51.627098 17.254395 58.172604 -16.135144 0.237807 3.193907 3.909582 -0.392172 -0.798390 11.816708 -0.845708 -1.570552 13.461663 -0.864479 -1.560378 5.126528 12.546917 -0.585013 2.113572 -12.414811 -0.502103 -6.457283 -66.336040 -8.214940 -67.595548 -134.198560 -53.226520 -0.000002 -0.000001 -0.000002 4.034824 -6.436214 -0.956171 0.000002 0.000000 -3.005090 -5.000220 -7.998753 0.000168 -18.852157 70.382244 22.278049 -74.414658 127.661126 55.912796 0.000002 0.000002 0.000005 0.010555 0.723462 0.893585 -0.000004 0.000010 3.024381 -5.000175 8.000078 0.000010 -69.141513 173.152098 5.550410 179.999991 -0.000005 -2.125004 94.856670 5.964400 -0.583169 -0.000003 -0.000000 2.343830 65.887406 7.264108 1.440885 25.456947 -7.358539 0.000002 -67.873222 174.912716 -6.744335 -0.000005 -0.000003 -1.541600 -81.237068 -3.423857 1.412417 -0.000002 -0.000005 -1.704939 61.093522 -7.332587 -1.649766 25.456962 7.362221 -0.000008 
51.635696 17.265394 58.178810 -16.284855 0.245842 3.202499 3.918002 -0.395545 -0.800893 11.833432 -0.852956 -1.576636 13.478395 -0.871804 -1.566385 5.259381 12.540671 -0.600145 2.112314 -12.412221 -0.502515 -6.397558 -66.393434 -8.151852 -67.691963 -134.135831 -53.263984 -0.000003 -0.000001 -0.000002 3.851842 -6.417652 -0.960820 0.000002 0.000000 -3.005090 -5.000224 -7.998753 0.000168 -18.838785 70.368434 22.263230 -74.337504 127.603001 55.813465 0.000005 0.000000 0.000002 0.009953 0.714492 0.893590 -0.000003 0.000009 3.024289 -5.000175 8.000078 0.000009 -68.996228 173.140023 5.559677 179.999991 -0.000004 -2.127995 94.859395 5.955467 -0.584913 -0.000003 -0.000000 2.342182 65.886334 7.263658 1.442161 25.456947 -7.358550 0.000007 -67.718443 174.884289 -6.753992 -0.000005 -0.000004 -1.542532 -81.219965 -3.412946 1.415891 -0.000002 -0.000005 -1.703791 61.093979 -7.331874 -1.651248 25.456964 7.362158 -0.000008 
51.644596 17.273289 58.191402 -16.435160 0.253363 3.210667 3.926431 -0.398879 -0.803382 11.850256 -0.860106 -1.582645 13.495220 -0.879028 -1.572321 5.394188 12.535615 -0.616037 2.108664 -12.409650 -0.503808 -6.337067 -66.449845 -8.087840 -67.788063 -134.074004 -53.296113 -0.000000 -0.000001 -0.000003 3.664950 -6.395374 -0.965808 0.000003 0.000000 -3.005090 -5.000223 -7.998755 0.000168 -18.822495 70.356720 22.245177 -74.263383 127.543374 55.716380 0.000002 0.000001 0.000003 0.009353 0.705631 0.893628 -0.000004 0.000009 3.024203 -5.000176 8.000079 0.000011 -68.849284 173.128684 5.568233 179.999991 -0.000005 -2.131000 94.861499 5.946639 -0.586654 -0.000003 -0.000000 2.340511 65.885050 7.263221 1.443351 25.456947 -7.358556 0.000001 -67.563330 174.856272 -6.763357 -0.000005 -0.000004 -1.543480 -81.203607 -3.402527 1.419179 -0.000002 -0.000005 -1.702620 61.094335 -7.331180 -1.652745 25.456960 7.362096 -0.000006 
51.645496 17.283194 58.194500 -16.586069 0.260361 3.218468 3.934897 -0.402165 -0.805806 11.867080 -0.867126 -1.588456 13.512048 -0.886122 -1.578064 5.530537 12.530960 -0.632815 2.103032 -12.406494 -0.506093 -6.276481 -66.505415 -8.023683 -67.882477 -134.012888 -53.321166 -0.000001 -0.000001 -0.000002 3.475783 -6.369452 -0.971094 0.000002 0.000000 -3.005080 -5.000224 -7.998753 0.000168 -18.802882 70.346413 22.223429 -74.191120 127.482612 55.620628 0.000005 0.000001 0.000003 0.008763 0.696929 0.893688 -0.000002 0.000011 3.024109 -5.000173 8.000078 0.000010 -68.700706 173.117688 5.577040 179.999991 -0.000004 -2.134006 94.863036 5.937995 -0.587377 -0.000003 -0.000000 2.338799 65.883561 7.262759 1.444650 25.456950 -7.358557 0.000001 -67.407834 174.828705 -6.772236 -0.000005 -0.000004 -1.544480 -81.188437 -3.392603 1.421867 -0.000002 -0.000005 -1.701432 61.094587 -7.330510 -1.654254 25.456952 7.362031 -0.000007 
51.652298 17.280190 58.200005 -16.737484 0.266831 3.225963 3.943428 -0.405395 -0.808113 11.884106 -0.873987 -1.593953 13.529075 -0.893051 -1.583488 5.667975 12.525916 -0.650587 2.095800 -12.402453 -0.509475 -6.216552 -66.560624 -7.960247 -67.974821 -133.952085 -53.338747 -0.000002 -0.000000 -0.000003 3.285992 -6.339935 -0.976667 0.000002 0.000001 -3.005080 -5.000224 -7.998753 0.000168 -18.779781 70.337008 22.197807 -74.120960 127.421072 55.527181 0.000002 0.000001 0.000004 0.008209 0.688439 0.893766 -0.000003 0.000009 3.024018 -5.000174 8.000078 0.000010 -68.550394 173.107060 5.586156 179.999991 -0.000004 -2.137995 94.864415 5.929363 -0.587080 -0.000003 -0.000000 2.337041 65.881969 7.262321 1.445965 25.456952 -7.358565 0.000005 -67.252016 174.801589 -6.780316 -0.000004 -0.000003 -1.545500 -81.174476 -3.383286 1.424064 -0.000001 -0.000005 -1.700210 61.094744 -7.329814 -1.655764 25.456948 7.361971 -0.000008 
